HIERARCHY
ROOT Hips
{
	OFFSET 0.000000 0.000000 0.000000
	CHANNELS 6 Xposition Yposition Zposition Zrotation Yrotation Xrotation 
	JOINT LHipJoint
	{
		OFFSET 0.000000 0.000000 0.000000
		CHANNELS 3 Zrotation Yrotation Xrotation
		JOINT LeftUpLeg
		{
			OFFSET 1.363060 -1.794630 0.839290
			CHANNELS 3 Zrotation Yrotation Xrotation
			JOINT LeftLeg
			{
				OFFSET 2.448110 -6.726130 0.000000
				CHANNELS 3 Zrotation Yrotation Xrotation
				JOINT LeftFoot
				{
					OFFSET 2.562200 -7.039590 0.000000
					CHANNELS 3 Zrotation Yrotation Xrotation
					JOINT LeftToeBase
					{
						OFFSET 0.157640 -0.433110 2.322550
						CHANNELS 3 Zrotation Yrotation Xrotation
						End Site
						{
							OFFSET 0.000000 0.000000 0.000000
						}
					}
				}
			}
		}
	}
	JOINT RHipJoint
	{
		OFFSET 0.000000 0.000000 0.000000
		CHANNELS 3 Zrotation Yrotation Xrotation
		JOINT RightUpLeg
		{
			OFFSET -1.305520 -1.794630 0.839290
			CHANNELS 3 Zrotation Yrotation Xrotation
			JOINT RightLeg
			{
				OFFSET -2.542530 -6.985550 0.000000
				CHANNELS 3 Zrotation Yrotation Xrotation
				JOINT RightFoot
				{
					OFFSET -2.568260 -7.056230 0.000000
					CHANNELS 3 Zrotation Yrotation Xrotation
					JOINT RightToeBase
					{
						OFFSET -0.164730 -0.452590 2.363150
						CHANNELS 3 Zrotation Yrotation Xrotation
						End Site
						{
							OFFSET 0.000000 0.000000 0.000000
						}
					}
				}
			}
		}
	}
	JOINT LowerBack
	{
		OFFSET 0.000000 0.000000 0.000000
		CHANNELS 3 Zrotation Yrotation Xrotation
		JOINT Spine
		{
			OFFSET 0.028270 2.035590 -0.193380
			CHANNELS 3 Zrotation Yrotation Xrotation
			JOINT Spine1
			{
				OFFSET 0.056720 2.048850 -0.042750
				CHANNELS 3 Zrotation Yrotation Xrotation
				JOINT Neck
				{
					OFFSET 0.000000 0.000000 0.000000
					CHANNELS 3 Zrotation Yrotation Xrotation
					JOINT Neck1
					{
						OFFSET -0.054170 1.746240 0.172020
						CHANNELS 3 Zrotation Yrotation Xrotation
						JOINT Head
						{
							OFFSET 0.104070 1.761360 -0.123970
							CHANNELS 3 Zrotation Yrotation Xrotation
							End Site
							{
								OFFSET 0.000000 0.000000 0.000000
							}
						}
					}
				}
				JOINT LeftShoulder
				{
					OFFSET 0.000000 0.000000 0.000000
					CHANNELS 3 Zrotation Yrotation Xrotation
					JOINT LeftArm
					{
						OFFSET 3.362410 1.200890 -0.311210
						CHANNELS 3 Zrotation Yrotation Xrotation
						JOINT LeftForeArm
						{
							OFFSET 4.983000 -0.000000 -0.000000
							CHANNELS 3 Zrotation Yrotation Xrotation
							JOINT LeftHand
							{
								OFFSET 3.483560 -0.000000 -0.000000
								CHANNELS 3 Zrotation Yrotation Xrotation
								JOINT LeftFingerBase
								{
									OFFSET 0.000000 0.000000 0.000000
									CHANNELS 3 Zrotation Yrotation Xrotation
									JOINT LeftHandIndex1
									{
										OFFSET 0.715260 -0.000000 -0.000000
										CHANNELS 3 Zrotation Yrotation Xrotation
										End Site
										{
											OFFSET 0.000000 0.000000 0.000000
										}
									}
								}
								JOINT LThumb
								{
									OFFSET 0.000000 0.000000 0.000000
									CHANNELS 3 Zrotation Yrotation Xrotation
									End Site
									{
										OFFSET 0.000000 0.000000 0.000000
									}
								}
							}
						}
					}
				}
				JOINT RightShoulder
				{
					OFFSET 0.000000 0.000000 0.000000
					CHANNELS 3 Zrotation Yrotation Xrotation
					JOINT RightArm
					{
						OFFSET -3.136600 1.374050 -0.404650
						CHANNELS 3 Zrotation Yrotation Xrotation
						JOINT RightForeArm
						{
							OFFSET -5.241900 -0.000000 -0.000000
							CHANNELS 3 Zrotation Yrotation Xrotation
							JOINT RightHand
							{
								OFFSET -3.444170 -0.000000 -0.000000
								CHANNELS 3 Zrotation Yrotation Xrotation
								JOINT RightFingerBase
								{
									OFFSET 0.000000 0.000000 0.000000
									CHANNELS 3 Zrotation Yrotation Xrotation
									JOINT RightHandIndex1
									{
										OFFSET -0.622530 -0.000000 -0.000000
										CHANNELS 3 Zrotation Yrotation Xrotation
										End Site
										{
											OFFSET 0.000000 0.000000 0.000000
										}
									}
								}
								JOINT RThumb
								{
									OFFSET 0.000000 0.000000 0.000000
									CHANNELS 3 Zrotation Yrotation Xrotation
									End Site
									{
										OFFSET 0.000000 0.000000 0.000000
									}
								}
							}
						}
					}
				}
			}
		}
	}
}
MOTION
Frames: 5
Frame Time: 0.008333
2.949518 16.849141 0.891473 -171.934782 -37.298007 -159.344417 -11.389394 1.175443 -6.036065 -1.468214 45.832108 -20.589566 -4.132469 0.108501 1.490184 2.557103 20.475110 10.234350 6.051700 0.000000 -62.558500 9.363484 0.944953 6.896872 -1.569109 15.462002 -45.626076 3.059521 0.374534 7.028914 2.129419 11.597254 17.035450 4.049900 -0.000000 -78.726001 -0.153132 -7.482795 -0.637127 0.286185 -7.425796 -2.330544 -4.527367 -7.470114 2.462004 17.783104 -18.175385 -7.598013 -0.084290 -0.000270 0.003640 0.000000 0.000000 0.000000 35.300480 -2.598738 4.324639 12.475939 -14.055818 -47.062846 -0.611241 -14.273815 -0.054983 5.820590 -4.582197 -0.288766 -0.320022 0.776715 -0.000000 0.000000 0.000000 0.000000 0.000000 0.000000 0.000000 8.353006 -18.959483 -4.505675 58.451664 47.353005 13.938201 -177.945169 57.700305 179.740728 -22.060090 16.530898 -3.523257 0.420166 -1.052793 -0.000000 0.000000 0.000000 0.000000 0.000000 0.000000 0.000000 
2.946868 16.842808 0.863223 -171.984836 -37.131229 -159.206605 -11.385548 1.191169 -5.985305 -1.545526 45.762754 -20.543724 -4.107004 0.082559 1.348559 2.590753 20.792464 10.322728 6.196600 0.000000 -62.405500 9.322356 0.885650 7.114839 -1.917846 16.050335 -45.980611 2.966387 0.353323 7.316718 2.071272 11.066902 16.768162 3.788800 0.000000 -78.611099 -0.144928 -7.377897 -0.938316 0.211745 -7.338065 -2.335807 -4.769047 -7.368321 2.511742 17.535393 -18.132370 -7.515197 -0.180831 -0.009130 0.028900 0.000000 0.000000 0.000000 36.174007 -2.901351 4.072980 10.018352 -14.075980 -45.566445 -0.327678 -20.519787 -0.059360 5.496902 -4.311386 -0.259286 -0.268261 0.812829 -0.000000 0.000000 0.000000 0.000000 0.000000 0.000000 0.000000 8.223740 -18.804572 -4.387853 58.346302 46.733248 13.728385 -178.055932 57.296449 179.743226 -21.875516 16.582381 -3.507346 0.428998 -1.063235 0.000000 0.000000 0.000000 0.000000 0.000000 0.000000 0.000000 
2.944550 16.839881 0.834733 -172.075935 -37.033784 -159.059032 -11.388364 1.209728 -5.910516 -1.631642 45.571004 -20.502342 -4.065164 0.056296 1.234060 2.634583 21.182483 10.456761 6.386600 0.000000 -62.234500 9.284323 0.824323 7.310900 -2.266573 16.555410 -46.255393 2.877864 0.340883 7.516696 2.011622 10.545452 16.539700 3.540101 -0.000000 -78.502500 -0.115943 -7.267023 -1.239171 0.144216 -7.246254 -2.357816 -4.994278 -7.263903 2.498316 17.253829 -18.077762 -7.348813 -0.294856 -0.020989 0.078224 0.000000 0.000000 0.000000 36.564883 -3.181183 3.753399 8.117160 -14.253357 -44.664104 -0.071920 -26.442798 -0.064313 5.457991 -4.445302 -0.263987 -0.227869 0.846651 -0.000000 0.000000 0.000000 0.000000 0.000000 0.000000 0.000000 8.063897 -18.628545 -4.252704 58.337506 46.141129 13.585864 -178.179683 56.924930 179.745327 -21.724851 16.659602 -3.502325 0.439084 -1.075209 0.000000 0.000000 0.000000 0.000000 0.000000 0.000000 0.000000 
2.942613 16.840032 0.807258 -172.198062 -37.007568 -158.915577 -11.399835 1.228217 -5.821121 -1.710805 45.284955 -20.460065 -4.010949 0.032142 1.150878 2.685196 21.614706 10.624528 6.607600 -0.000000 -62.056200 9.248546 0.765211 7.474869 -2.598461 16.970092 -46.439351 2.796241 0.336181 7.643639 1.951580 10.038266 16.343836 3.303700 -0.000000 -78.403800 -0.056335 -7.156861 -1.514698 0.087850 -7.156400 -2.389982 -5.193244 -7.162722 2.437154 16.940932 -18.021387 -7.121578 -0.415638 -0.034481 0.144631 0.000000 0.000000 0.000000 36.610854 -3.353374 3.356943 6.468537 -14.708560 -44.483645 0.172522 -32.139741 -0.072476 5.761958 -4.774253 -0.295295 -0.198401 0.874576 -0.000000 0.000000 0.000000 0.000000 0.000000 0.000000 0.000000 7.860744 -18.447926 -4.113329 58.441844 45.616054 13.523262 -178.305337 56.601961 179.746884 -21.613628 16.756698 -3.507800 0.449485 -1.087921 -0.000000 0.000000 0.000000 0.000000 0.000000 0.000000 0.000000 
2.940908 16.843028 0.781455 -172.344166 -37.052172 -158.784131 -11.421112 1.245027 -5.721851 -1.772157 44.925265 -20.414087 -3.947236 0.011321 1.098077 2.739953 22.066435 10.818911 6.849500 0.000000 -61.880000 9.214516 0.710452 7.601923 -2.898598 17.291070 -46.527755 2.723472 0.338357 7.709256 1.892222 9.548755 16.176399 3.079300 0.000001 -78.313901 0.038414 -7.052329 -1.753116 0.043715 -7.073008 -2.431287 -5.365910 -7.069408 2.325079 16.597877 -17.953908 -6.839088 -0.539864 -0.049166 0.226344 0.000000 0.000000 0.000000 36.410883 -3.446989 2.879172 4.840019 -15.397071 -44.896791 0.398532 -37.780906 -0.085106 6.421884 -5.113630 -0.347606 -0.178184 0.894863 -0.000000 0.000000 0.000000 0.000000 0.000000 0.000000 0.000000 7.611982 -18.257269 -3.970816 58.648239 45.163740 13.533157 -178.428859 56.340304 179.747859 -21.545464 16.863285 -3.521977 0.459904 -1.100726 0.000000 0.000000 0.000000 0.000000 0.000000 0.000000 0.000000 
